<mxfile host="app.diagrams.net" modified="2023-06-14T15:27:43.387Z" agent="Mozilla/5.0 (Macintosh; Intel Mac OS X 10_15_7) AppleWebKit/537.36 (KHTML, like Gecko) Chrome/114.0.0.0 Safari/537.36" etag="arW7YoIRxC7mqgeNSUfx" version="21.3.8" type="github">
  <diagram name="Page-1" id="uXH1Mn47wiIiLpIFTY3a">
    <mxGraphModel dx="1841" dy="1035" grid="1" gridSize="10" guides="1" tooltips="1" connect="1" arrows="1" fold="1" page="1" pageScale="1" pageWidth="850" pageHeight="1100" math="0" shadow="0">
      <root>
        <mxCell id="0" />
        <mxCell id="1" parent="0" />
        <mxCell id="RRtqH9N0MBYJp4btdwDN-55" value="" style="edgeStyle=orthogonalEdgeStyle;rounded=0;orthogonalLoop=1;jettySize=auto;html=1;" edge="1" parent="1" source="RRtqH9N0MBYJp4btdwDN-1" target="RRtqH9N0MBYJp4btdwDN-54">
          <mxGeometry relative="1" as="geometry" />
        </mxCell>
        <mxCell id="RRtqH9N0MBYJp4btdwDN-1" value="Add FLag&amp;nbsp; 1 on A" style="rounded=0;whiteSpace=wrap;html=1;" vertex="1" parent="1">
          <mxGeometry x="80" y="280" width="120" height="40" as="geometry" />
        </mxCell>
        <mxCell id="RRtqH9N0MBYJp4btdwDN-2" value="Device 3 On Card 0" style="rounded=0;whiteSpace=wrap;html=1;" vertex="1" parent="1">
          <mxGeometry x="80" y="200" width="120" height="40" as="geometry" />
        </mxCell>
        <mxCell id="RRtqH9N0MBYJp4btdwDN-53" value="" style="edgeStyle=orthogonalEdgeStyle;rounded=0;orthogonalLoop=1;jettySize=auto;html=1;" edge="1" parent="1" source="RRtqH9N0MBYJp4btdwDN-4" target="RRtqH9N0MBYJp4btdwDN-52">
          <mxGeometry relative="1" as="geometry" />
        </mxCell>
        <mxCell id="RRtqH9N0MBYJp4btdwDN-4" value="Add FLag&amp;nbsp; 1 on A" style="rounded=0;whiteSpace=wrap;html=1;" vertex="1" parent="1">
          <mxGeometry x="280" y="280" width="120" height="40" as="geometry" />
        </mxCell>
        <mxCell id="RRtqH9N0MBYJp4btdwDN-5" value="Device 2 On Card 0" style="rounded=0;whiteSpace=wrap;html=1;" vertex="1" parent="1">
          <mxGeometry x="280" y="200" width="120" height="40" as="geometry" />
        </mxCell>
        <mxCell id="RRtqH9N0MBYJp4btdwDN-51" value="" style="edgeStyle=orthogonalEdgeStyle;rounded=0;orthogonalLoop=1;jettySize=auto;html=1;" edge="1" parent="1" source="RRtqH9N0MBYJp4btdwDN-6" target="RRtqH9N0MBYJp4btdwDN-50">
          <mxGeometry relative="1" as="geometry" />
        </mxCell>
        <mxCell id="RRtqH9N0MBYJp4btdwDN-6" value="Add FLag&amp;nbsp; 1 on A" style="rounded=0;whiteSpace=wrap;html=1;" vertex="1" parent="1">
          <mxGeometry x="480" y="280" width="120" height="40" as="geometry" />
        </mxCell>
        <mxCell id="RRtqH9N0MBYJp4btdwDN-7" value="Device 1 On Card 0" style="rounded=0;whiteSpace=wrap;html=1;" vertex="1" parent="1">
          <mxGeometry x="480" y="200" width="120" height="40" as="geometry" />
        </mxCell>
        <mxCell id="RRtqH9N0MBYJp4btdwDN-43" value="" style="edgeStyle=orthogonalEdgeStyle;rounded=0;orthogonalLoop=1;jettySize=auto;html=1;" edge="1" parent="1" source="RRtqH9N0MBYJp4btdwDN-8" target="RRtqH9N0MBYJp4btdwDN-18">
          <mxGeometry relative="1" as="geometry" />
        </mxCell>
        <mxCell id="RRtqH9N0MBYJp4btdwDN-8" value="Add FLag&amp;nbsp; 1 on A" style="rounded=0;whiteSpace=wrap;html=1;" vertex="1" parent="1">
          <mxGeometry x="680" y="280" width="120" height="40" as="geometry" />
        </mxCell>
        <mxCell id="RRtqH9N0MBYJp4btdwDN-42" value="" style="edgeStyle=orthogonalEdgeStyle;rounded=0;orthogonalLoop=1;jettySize=auto;html=1;" edge="1" parent="1" source="RRtqH9N0MBYJp4btdwDN-9" target="RRtqH9N0MBYJp4btdwDN-8">
          <mxGeometry relative="1" as="geometry" />
        </mxCell>
        <mxCell id="RRtqH9N0MBYJp4btdwDN-9" value="Device 0 On Card 0" style="rounded=0;whiteSpace=wrap;html=1;" vertex="1" parent="1">
          <mxGeometry x="680" y="200" width="120" height="40" as="geometry" />
        </mxCell>
        <mxCell id="RRtqH9N0MBYJp4btdwDN-10" value="" style="endArrow=none;dashed=1;html=1;rounded=0;" edge="1" parent="1">
          <mxGeometry width="50" height="50" relative="1" as="geometry">
            <mxPoint x="840" y="970" as="sourcePoint" />
            <mxPoint x="840" y="80" as="targetPoint" />
          </mxGeometry>
        </mxCell>
        <mxCell id="RRtqH9N0MBYJp4btdwDN-45" value="" style="edgeStyle=orthogonalEdgeStyle;rounded=0;orthogonalLoop=1;jettySize=auto;html=1;" edge="1" parent="1" source="RRtqH9N0MBYJp4btdwDN-15" target="RRtqH9N0MBYJp4btdwDN-16">
          <mxGeometry relative="1" as="geometry" />
        </mxCell>
        <mxCell id="RRtqH9N0MBYJp4btdwDN-15" value="Allreduce Kernel" style="rounded=0;whiteSpace=wrap;html=1;" vertex="1" parent="1">
          <mxGeometry x="680" y="440" width="120" height="40" as="geometry" />
        </mxCell>
        <mxCell id="RRtqH9N0MBYJp4btdwDN-46" value="" style="edgeStyle=orthogonalEdgeStyle;rounded=0;orthogonalLoop=1;jettySize=auto;html=1;" edge="1" parent="1" source="RRtqH9N0MBYJp4btdwDN-16" target="RRtqH9N0MBYJp4btdwDN-17">
          <mxGeometry relative="1" as="geometry" />
        </mxCell>
        <mxCell id="RRtqH9N0MBYJp4btdwDN-16" value="P2P Write Flag&lt;br&gt;&amp;nbsp;To D on Card 1" style="rounded=0;whiteSpace=wrap;html=1;" vertex="1" parent="1">
          <mxGeometry x="680" y="520" width="120" height="40" as="geometry" />
        </mxCell>
        <mxCell id="RRtqH9N0MBYJp4btdwDN-47" value="" style="edgeStyle=orthogonalEdgeStyle;rounded=0;orthogonalLoop=1;jettySize=auto;html=1;" edge="1" parent="1" source="RRtqH9N0MBYJp4btdwDN-17" target="RRtqH9N0MBYJp4btdwDN-19">
          <mxGeometry relative="1" as="geometry" />
        </mxCell>
        <mxCell id="RRtqH9N0MBYJp4btdwDN-17" value="Memory Check B" style="rounded=0;whiteSpace=wrap;html=1;" vertex="1" parent="1">
          <mxGeometry x="680" y="600" width="120" height="40" as="geometry" />
        </mxCell>
        <mxCell id="RRtqH9N0MBYJp4btdwDN-44" value="" style="edgeStyle=orthogonalEdgeStyle;rounded=0;orthogonalLoop=1;jettySize=auto;html=1;" edge="1" parent="1" source="RRtqH9N0MBYJp4btdwDN-18" target="RRtqH9N0MBYJp4btdwDN-15">
          <mxGeometry relative="1" as="geometry" />
        </mxCell>
        <mxCell id="RRtqH9N0MBYJp4btdwDN-18" value="Memory Check A &lt;br&gt;Equal 4" style="rounded=0;whiteSpace=wrap;html=1;" vertex="1" parent="1">
          <mxGeometry x="680" y="360" width="120" height="40" as="geometry" />
        </mxCell>
        <mxCell id="RRtqH9N0MBYJp4btdwDN-48" value="" style="edgeStyle=orthogonalEdgeStyle;rounded=0;orthogonalLoop=1;jettySize=auto;html=1;" edge="1" parent="1" source="RRtqH9N0MBYJp4btdwDN-19" target="RRtqH9N0MBYJp4btdwDN-34">
          <mxGeometry relative="1" as="geometry" />
        </mxCell>
        <mxCell id="RRtqH9N0MBYJp4btdwDN-19" value="P2P Read&lt;br&gt;From Card 1" style="rounded=0;whiteSpace=wrap;html=1;" vertex="1" parent="1">
          <mxGeometry x="680" y="680" width="120" height="40" as="geometry" />
        </mxCell>
        <mxCell id="RRtqH9N0MBYJp4btdwDN-36" value="" style="edgeStyle=orthogonalEdgeStyle;rounded=0;orthogonalLoop=1;jettySize=auto;html=1;" edge="1" parent="1" source="RRtqH9N0MBYJp4btdwDN-20" target="RRtqH9N0MBYJp4btdwDN-25">
          <mxGeometry relative="1" as="geometry" />
        </mxCell>
        <mxCell id="RRtqH9N0MBYJp4btdwDN-20" value="Add FLag&amp;nbsp; 1 on C" style="rounded=0;whiteSpace=wrap;html=1;" vertex="1" parent="1">
          <mxGeometry x="880" y="280" width="120" height="40" as="geometry" />
        </mxCell>
        <mxCell id="RRtqH9N0MBYJp4btdwDN-35" value="" style="edgeStyle=orthogonalEdgeStyle;rounded=0;orthogonalLoop=1;jettySize=auto;html=1;" edge="1" parent="1" source="RRtqH9N0MBYJp4btdwDN-21" target="RRtqH9N0MBYJp4btdwDN-20">
          <mxGeometry relative="1" as="geometry" />
        </mxCell>
        <mxCell id="RRtqH9N0MBYJp4btdwDN-21" value="Device 0 On Card 1" style="rounded=0;whiteSpace=wrap;html=1;" vertex="1" parent="1">
          <mxGeometry x="880" y="200" width="120" height="40" as="geometry" />
        </mxCell>
        <mxCell id="RRtqH9N0MBYJp4btdwDN-38" value="" style="edgeStyle=orthogonalEdgeStyle;rounded=0;orthogonalLoop=1;jettySize=auto;html=1;" edge="1" parent="1" source="RRtqH9N0MBYJp4btdwDN-22" target="RRtqH9N0MBYJp4btdwDN-23">
          <mxGeometry relative="1" as="geometry" />
        </mxCell>
        <mxCell id="RRtqH9N0MBYJp4btdwDN-22" value="Allreduce Kernel" style="rounded=0;whiteSpace=wrap;html=1;" vertex="1" parent="1">
          <mxGeometry x="880" y="440" width="120" height="40" as="geometry" />
        </mxCell>
        <mxCell id="RRtqH9N0MBYJp4btdwDN-39" value="" style="edgeStyle=orthogonalEdgeStyle;rounded=0;orthogonalLoop=1;jettySize=auto;html=1;" edge="1" parent="1" source="RRtqH9N0MBYJp4btdwDN-23" target="RRtqH9N0MBYJp4btdwDN-24">
          <mxGeometry relative="1" as="geometry" />
        </mxCell>
        <mxCell id="RRtqH9N0MBYJp4btdwDN-23" value="P2P Write Flag&lt;br&gt;&amp;nbsp;To B on Card 0" style="rounded=0;whiteSpace=wrap;html=1;" vertex="1" parent="1">
          <mxGeometry x="880" y="520" width="120" height="40" as="geometry" />
        </mxCell>
        <mxCell id="RRtqH9N0MBYJp4btdwDN-40" value="" style="edgeStyle=orthogonalEdgeStyle;rounded=0;orthogonalLoop=1;jettySize=auto;html=1;" edge="1" parent="1" source="RRtqH9N0MBYJp4btdwDN-24" target="RRtqH9N0MBYJp4btdwDN-26">
          <mxGeometry relative="1" as="geometry" />
        </mxCell>
        <mxCell id="RRtqH9N0MBYJp4btdwDN-24" value="Memory Check D" style="rounded=0;whiteSpace=wrap;html=1;" vertex="1" parent="1">
          <mxGeometry x="880" y="600" width="120" height="40" as="geometry" />
        </mxCell>
        <mxCell id="RRtqH9N0MBYJp4btdwDN-37" value="" style="edgeStyle=orthogonalEdgeStyle;rounded=0;orthogonalLoop=1;jettySize=auto;html=1;" edge="1" parent="1" source="RRtqH9N0MBYJp4btdwDN-25" target="RRtqH9N0MBYJp4btdwDN-22">
          <mxGeometry relative="1" as="geometry" />
        </mxCell>
        <mxCell id="RRtqH9N0MBYJp4btdwDN-25" value="Memory Check C&lt;br&gt;Equal 4" style="rounded=0;whiteSpace=wrap;html=1;" vertex="1" parent="1">
          <mxGeometry x="880" y="360" width="120" height="40" as="geometry" />
        </mxCell>
        <mxCell id="RRtqH9N0MBYJp4btdwDN-41" value="" style="edgeStyle=orthogonalEdgeStyle;rounded=0;orthogonalLoop=1;jettySize=auto;html=1;" edge="1" parent="1" source="RRtqH9N0MBYJp4btdwDN-26" target="RRtqH9N0MBYJp4btdwDN-33">
          <mxGeometry relative="1" as="geometry" />
        </mxCell>
        <mxCell id="RRtqH9N0MBYJp4btdwDN-26" value="P2P Read&lt;br&gt;From Card 1" style="rounded=0;whiteSpace=wrap;html=1;" vertex="1" parent="1">
          <mxGeometry x="880" y="680" width="120" height="40" as="geometry" />
        </mxCell>
        <mxCell id="RRtqH9N0MBYJp4btdwDN-58" value="" style="edgeStyle=orthogonalEdgeStyle;rounded=0;orthogonalLoop=1;jettySize=auto;html=1;" edge="1" parent="1" source="RRtqH9N0MBYJp4btdwDN-27" target="RRtqH9N0MBYJp4btdwDN-57">
          <mxGeometry relative="1" as="geometry" />
        </mxCell>
        <mxCell id="RRtqH9N0MBYJp4btdwDN-27" value="Add FLag&amp;nbsp; 1 on C" style="rounded=0;whiteSpace=wrap;html=1;" vertex="1" parent="1">
          <mxGeometry x="1080" y="280" width="120" height="40" as="geometry" />
        </mxCell>
        <mxCell id="RRtqH9N0MBYJp4btdwDN-28" value="Device 1 On Card 1" style="rounded=0;whiteSpace=wrap;html=1;" vertex="1" parent="1">
          <mxGeometry x="1080" y="200" width="120" height="40" as="geometry" />
        </mxCell>
        <mxCell id="RRtqH9N0MBYJp4btdwDN-60" value="" style="edgeStyle=orthogonalEdgeStyle;rounded=0;orthogonalLoop=1;jettySize=auto;html=1;" edge="1" parent="1" source="RRtqH9N0MBYJp4btdwDN-29" target="RRtqH9N0MBYJp4btdwDN-59">
          <mxGeometry relative="1" as="geometry" />
        </mxCell>
        <mxCell id="RRtqH9N0MBYJp4btdwDN-29" value="Add FLag&amp;nbsp; 1 on C" style="rounded=0;whiteSpace=wrap;html=1;" vertex="1" parent="1">
          <mxGeometry x="1280" y="280" width="120" height="40" as="geometry" />
        </mxCell>
        <mxCell id="RRtqH9N0MBYJp4btdwDN-30" value="Device 2 On Card 1" style="rounded=0;whiteSpace=wrap;html=1;" vertex="1" parent="1">
          <mxGeometry x="1280" y="200" width="120" height="40" as="geometry" />
        </mxCell>
        <mxCell id="RRtqH9N0MBYJp4btdwDN-62" value="" style="edgeStyle=orthogonalEdgeStyle;rounded=0;orthogonalLoop=1;jettySize=auto;html=1;" edge="1" parent="1" source="RRtqH9N0MBYJp4btdwDN-31" target="RRtqH9N0MBYJp4btdwDN-61">
          <mxGeometry relative="1" as="geometry" />
        </mxCell>
        <mxCell id="RRtqH9N0MBYJp4btdwDN-31" value="Add FLag&amp;nbsp; 1 on C" style="rounded=0;whiteSpace=wrap;html=1;" vertex="1" parent="1">
          <mxGeometry x="1480" y="280" width="120" height="40" as="geometry" />
        </mxCell>
        <mxCell id="RRtqH9N0MBYJp4btdwDN-32" value="Device 3 On Card 1" style="rounded=0;whiteSpace=wrap;html=1;" vertex="1" parent="1">
          <mxGeometry x="1480" y="200" width="120" height="40" as="geometry" />
        </mxCell>
        <mxCell id="RRtqH9N0MBYJp4btdwDN-63" value="" style="edgeStyle=orthogonalEdgeStyle;rounded=0;orthogonalLoop=1;jettySize=auto;html=1;" edge="1" parent="1" source="RRtqH9N0MBYJp4btdwDN-33" target="RRtqH9N0MBYJp4btdwDN-56">
          <mxGeometry relative="1" as="geometry" />
        </mxCell>
        <mxCell id="RRtqH9N0MBYJp4btdwDN-33" value="Reduce + Bcast&lt;br&gt;Kernel" style="rounded=0;whiteSpace=wrap;html=1;" vertex="1" parent="1">
          <mxGeometry x="880" y="760" width="120" height="40" as="geometry" />
        </mxCell>
        <mxCell id="RRtqH9N0MBYJp4btdwDN-64" value="" style="edgeStyle=orthogonalEdgeStyle;rounded=0;orthogonalLoop=1;jettySize=auto;html=1;" edge="1" parent="1" source="RRtqH9N0MBYJp4btdwDN-34" target="RRtqH9N0MBYJp4btdwDN-49">
          <mxGeometry relative="1" as="geometry" />
        </mxCell>
        <mxCell id="RRtqH9N0MBYJp4btdwDN-34" value="Reduce + Bcast&lt;br&gt;Kernel" style="rounded=0;whiteSpace=wrap;html=1;" vertex="1" parent="1">
          <mxGeometry x="680" y="760" width="120" height="40" as="geometry" />
        </mxCell>
        <mxCell id="RRtqH9N0MBYJp4btdwDN-49" value="Set Flag E" style="rounded=0;whiteSpace=wrap;html=1;" vertex="1" parent="1">
          <mxGeometry x="680" y="840" width="120" height="40" as="geometry" />
        </mxCell>
        <mxCell id="RRtqH9N0MBYJp4btdwDN-50" value="Memory Check E" style="rounded=0;whiteSpace=wrap;html=1;" vertex="1" parent="1">
          <mxGeometry x="480" y="920" width="120" height="40" as="geometry" />
        </mxCell>
        <mxCell id="RRtqH9N0MBYJp4btdwDN-52" value="Memory Check E" style="rounded=0;whiteSpace=wrap;html=1;" vertex="1" parent="1">
          <mxGeometry x="280" y="920" width="120" height="40" as="geometry" />
        </mxCell>
        <mxCell id="RRtqH9N0MBYJp4btdwDN-54" value="Memory Check E" style="rounded=0;whiteSpace=wrap;html=1;" vertex="1" parent="1">
          <mxGeometry x="80" y="920" width="120" height="40" as="geometry" />
        </mxCell>
        <mxCell id="RRtqH9N0MBYJp4btdwDN-56" value="Set Flag F" style="rounded=0;whiteSpace=wrap;html=1;" vertex="1" parent="1">
          <mxGeometry x="880" y="840" width="120" height="40" as="geometry" />
        </mxCell>
        <mxCell id="RRtqH9N0MBYJp4btdwDN-57" value="Memory Check F" style="rounded=0;whiteSpace=wrap;html=1;" vertex="1" parent="1">
          <mxGeometry x="1080" y="920" width="120" height="40" as="geometry" />
        </mxCell>
        <mxCell id="RRtqH9N0MBYJp4btdwDN-59" value="Memory Check F" style="rounded=0;whiteSpace=wrap;html=1;" vertex="1" parent="1">
          <mxGeometry x="1280" y="920" width="120" height="40" as="geometry" />
        </mxCell>
        <mxCell id="RRtqH9N0MBYJp4btdwDN-61" value="Memory Check F" style="rounded=0;whiteSpace=wrap;html=1;" vertex="1" parent="1">
          <mxGeometry x="1480" y="920" width="120" height="40" as="geometry" />
        </mxCell>
      </root>
    </mxGraphModel>
  </diagram>
</mxfile>
